<svg xmlns="http://www.w3.org/2000/svg" xmlns:xlink="http://www.w3.org/1999/xlink" width="375" height="322" viewBox="0 0 375 322">
  <defs>
    <clipPath id="clip-path">
      <rect id="Rectangle_1405" data-name="Rectangle 1405" width="375" height="322" transform="translate(0 4994)" fill="#fff" stroke="#707070" stroke-width="1"/>
    </clipPath>
  </defs>
  <g id="Mask_Group_102" data-name="Mask Group 102" transform="translate(0 -4994)" clip-path="url(#clip-path)">
    <path id="Path_290" data-name="Path 290" d="M337.453,374.23c-1.683-3.114-4.227-3.167-4.6-11.03C334.841,371.169,338.045,360.4,337.453,374.23ZM938.62,341.142c-2.95.422-4.442,6.1-6.13,11.012-.132,6.931,1.174,8.655,2.29,11.047C934.422,349.937,939.471,356.147,938.62,341.142ZM323.657,338.38c-1.36-3.325-4.427-.264-6.908-5.506.191,9.429,4.1,5.488,4.6,13.773C321.441,341.459,323.892,344.748,323.657,338.38Zm-78.984-49.623c4.149-2.2,10.807,13.193,16.1,5.523C255.045,295.547,249.673,280.964,244.673,288.757Zm-6.135-8.268c10.009-.932-.905-6.526-5.367,0C235.036,280.366,236.753,280.665,238.539,280.489Zm53.677-71.665c.973,3.149,6.047,5.523,6.9,0C295.9,207.628,293.869,204.374,292.215,208.825Zm-16.1-13.809c-2.2-.563-4.183-.352-3.835,8.268C274.07,202.369,275.587,200.451,276.115,195.016Zm42.938-11.029c.127,7.793-4.726-2.287-4.6,5.506C315.052,194.312,321.514,189.457,319.054,183.986ZM421.8,109.542c-1.615-5.629-8.85-11.029-9.2,2.744C415.717,115.136,419.029,114.591,421.8,109.542ZM815.166,451.454c-2.045,3.659-5.89.844-6.9,8.232C811.654,460.865,813.645,456.977,815.166,451.454Zm55.208-30.344c4.3,4.31,5.753-6.421,9.97-5.524,7.828,1.689,15.43,38.84,23,33.071,2.441-1.847,5.235-11.874,6.135-22.059-6.971,25.243-13.341,5.154-21.472-5.488-13.806-18.083-31.941-15.251-50.609-16.553,8.63,6.667,26.74,3.078,38.34,8.25.47.158.91.44.768,2.779C874.464,417.416,871.715,416.73,870.374,421.11ZM341.288,354.916c2.8-11.821,5.323,5.506,9.97-2.762,6.272,29.2,21.56,23.149,29.906,41.373-13.766,1.143-28.932-15.023-42.17-24.82,4.966,17.556,18.262,16.518,26.833,27.6,3.679,4.714,3.845,6.509,7.666,11.012.093-3.377.23-6.526,1.541-5.523-1.526,6.368.186,3.061.763,8.268,74.468,11.258,165.09-2.287,233.1-11.012,5.489-.721,12.847,2.92,13.8,2.744a385.859,385.859,0,0,1,106.585-5.488c8.6.7,17.979-.985,26.843-2.779,32.3-6.526,67.707-.88,96.61-5.524,5.156-.809,9.936-6.034,14.569-5.488,1.125.106,4.789,6.491,6.135,5.488,1.473-1.091,3.645-13.281,6.135-13.773,1.541-.3,2.945,5.629,3.83,5.506.039,0,.66-5.523,2.3-5.506,1.727,0,3.283,2.252,5.367,2.762,9.046,2.2,12.71-13,19.935-24.838,2.97,4.961,4.227,16.078,9.2,13.809,3.86-10.308,7.084-27.125,12.274-24.82.8-12.965-2.593,4.521-3.077-5.506,3.782-16.1,3.66-60.055,9.207-60.67,2.074-26.421-4.887-33.141-3.84-46.862-1.111-1.513-3.958,3.2-3.831-2.779,1.761-32-9.618-28.532-8.429-49.624-5.406,11.979-8.219-3.606-12.274-11.012,1.355-5.189,2.378,3.782,3.068-5.523-7.285,2.3-12.847-1.6-16.868-11.029,3.2-.633-.347-9.78,1.536-16.553-2.568,1.038-9.124,1.953-8.439,5.541,5.044-.229,4.065,10.431,6.9,0-.1,5.119-.5,9.2-1.531,11.012-6.418-5.172-12.093-16.606-16.11-5.523-2.314-2.674-3-11.205-4.594-16.535h-6.135c-16.423-30.01-51.128-20.933-72.849-13.791-6.712-15.674-15.508-.334-23.766-5.489-26.775-16.8-55.78,12.208-79.747-2.762-1.566.809-1.5,7.441-3.068,8.25-40.815-11.874-90.583,3.272-138.027,0,.885-8.655-1.2-6.7-1.531-11.029C527.6,115.576,507.5,114.89,487.745,131.583c4.887-.088,9.427,1.055,13.037,5.541-1.834,1.671-5.562-3.465-6.13,2.744,8.586,5.77,24.857.018,32.968,2.744-1.316-.141-1.966,2.146-2.3,5.523,12.539.194,22.744-6.579,38.345-2.744-38.124,10.08-66.68,10.748-101.986,2.744,7.059-9.2,17.044,7.916,22.24-5.523-3.62.756-13.429.879-16.1-2.744,5.587-6.561,14.96.493,19.172-11.047-28.962-17.045-57.165-9.833-85.882-8.25,4.824,7.476,14.407-2.181,19.167,5.506a15.194,15.194,0,0,0-2.3,5.506c6.14-3.712,13.311,7.142,14.569-2.762-1.15-.457-2.828,1.021-3.067-2.744,11.59-3.553,23.859,15.9,35.272,11.047-1.883,5.242-5.249,6.825-7.666,2.744.372,8.9-3.522,16.518-5.367,8.268,2.192.545,4.183.352,3.836-8.268-7.583,5.224-16.883-9.745-21.472,2.744,6.834-.528,13.864.985,16.1,2.779-6.076,4.345-13.987.985-21.472-2.779,1.565,2.375,4.765-2.392,2.3-5.488-4.173,9.095-18.169-10.132-19.172,5.488,4.423-1.284,6.908-4.5,12.27,2.779-1.316,5.488-8.64,3.676-7.666,8.268,1.115,1.5,3.963-3.219,3.831,2.744-6.531-3.166-16.937,5.682-19.935-2.744,3.194,2.252,6.4-3.747,7.671,0,1.663-8.444.489-11.1,2.3-16.535-6.389-1.267-15.532-6.174-15.337-22.059-43.623-8.039-103.4,27.635-136.486,82.712,2.955,2.252,7.544-1.39,8.434,8.268-6.091-1.108-14.936-6.913-20.7,0,8.126-1.513,14.857,8.672,22.235,0-.43-8.567-3.757-6.7-5.367-11.029,4.647-2.955,10.494-16.184,9.965-2.744,1.673-8.461,4.819.844,6.14,2.744,1.228-2.04-.176-13.51,2.3-11.029,1.306,1.126-.161,3.553,0,8.285,3.5-8.109,5.161-13.95,9.97-8.285,3.547-14.425,10.459-12.736,13.8-13.809,3.18-.985,6.061-8,9.97-11.012,13.008-9.956,33.32-14.284,42.943-8.268-.9.44-2.177-.493-2.3,2.762,6.927.246,11.638-10.449,15.332,2.744-9.129.176-26.736,4.873-36.8,8.285-1.076-.211-2.93.616-1.536,2.744,5.465,2.427,13.82-5.559,16.873,5.523-5.518-2.357-9.985,2.533-13.8,2.744-4.447.281-11.105-10.889-14.574,11.047,4.936,4.2.533-8,3.835-8.285-.876,8.672,1.2,6.7,1.531,11.03-5.606,10.185-16.844.088-19.931,19.332.924,12.155,4.134-1.83,4.6,2.727-1.879.317-.161,9.112.768,8.285,3.826-4.609,6.864-1.32,11.5,0-26.745,6.561-34.671,9.622-59.043,11.012,2.25,3.958,7.7,4.96,3.067,11.029,4.682,3.4,10.748,1.777,14.569,8.285-5.841-1.953-12.524,1.179-15.337,5.506,10.293,1.636,20.762,2.146,29.906,13.791-2,2.287-4.212-8.356-5.367,0,1.365,1.513,3.185,1.39,3.831,5.506-6.463-1.654-7.524,5.734-13.033,11.029,5.274,2.762,4.383-2.586,9.965-2.744-3.762,11.663,3.2,5.33,3.835,13.774-1.9-.4-3.718-.51-3.835,5.523,6.756-8.373,15.855-3.975,21.472,2.744,0,3.677-1.345,2.5-1.531,5.523,6.438,6.385,8.992-2.639,16.1,13.791-1.923-.475-1.864,6.174-3.067,8.268,2.686-2.885,3.591,3.606,4.6,8.268-1.272.334-4.878-8.919-4.6,2.762C329.405,352.418,340.525,332.558,341.288,354.916ZM282.25,239.133h-7.666C274.153,237.163,283.248,229.194,282.25,239.133Zm29.906-24.821c.817-9.2,2.324-.176,4.594-5.488C316.725,221.7,314.572,214.049,312.156,214.313Zm97.383,184.738c-2.71-4.7-2.7,0-6.135,0C403.6,394.02,409.754,388.021,409.539,399.051Zm-9.207-2.744c-.328,6.139-3.782,1.091-5.367,2.744C395.591,393.246,399.006,391.469,400.332,396.307ZM884.943,159.166c.176-18.611,7.93-6.72,11.5-5.506C894.057,160.714,889.253,159.043,884.943,159.166ZM314.455,332.875c-1.58,1.689-5.328-4.468-4.6,5.506,2.881-4.82,3.493,3.5,4.6,0C313.525,337.8,313.985,335.32,314.455,332.875Zm-6.9-27.582c-2.4.58-5.626-1.847-6.9,2.779-.034,2.92.367,7,.773,2.744C302.914,300.912,307.21,318.2,307.552,305.292Zm-22.235-99.247c-.822,5.611-4.55-4.908-5.372,5.506C282.045,212.448,287.573,211.727,285.317,206.045Zm634.9-46.879c-.964,6.4,6.032,22.27,7.671,19.3C924.589,174.7,923.009,164.76,920.215,159.166Z" transform="translate(-399.008 4892.368)" fill="#ff7b14"/>
  </g>
</svg>
